<?xml version="1.0" encoding="utf-8"?>
<!-- Generator: Adobe Illustrator 24.0.0, SVG Export Plug-In . SVG Version: 6.00 Build 0)  -->
<svg version="1.1" id="图层_1" xmlns="http://www.w3.org/2000/svg" xmlns:xlink="http://www.w3.org/1999/xlink" x="0px" y="0px"
	 viewBox="0 0 200 68" style="enable-background:new 0 0 200 68;" xml:space="preserve">
<style type="text/css">
	.st0{fill:#303084;}
	.st1{fill:#796BFA;}
	.st2{fill:#FFFFFF;}
	.st3{display:none;}
	.st4{display:inline;fill:#FFFFFF;}
	.st5{display:inline;}
</style>
<g>
	<path class="st0" d="M88.9,23.7c-2.6,0-4.4,1-4.4,2.8c0,6,15.8,2.7,15.8,13.3c0,5.5-4.8,8.7-11.3,8.7c-4.7,0-9.3-1.9-12.4-4.7
		L79,39c3,2.7,7,4.3,10.2,4.3c3.2,0,5-1.2,5-3.2c0-6.1-15.8-2.6-15.8-13.1c0-5.1,4.4-8.4,11-8.4c3.9,0,7.8,1.3,10.6,3.1l-2.3,4.9
		C94.6,24.7,91.2,23.7,88.9,23.7z"/>
	<path class="st0" d="M127.9,26.6c-2.4-1.3-5.7-2.4-9.3-2.5v24.2H113V24.1c-2.9,0.3-5.7,1.2-8.1,2.5l-1.8-4.8c3.7-2,7.4-2.8,12-2.8
		c5.6,0,11,3.5,13.3,6.4L127.9,26.6z"/>
	<path class="st0" d="M137.4,29.6v3.7h11.3v4.9h-11.3v10h-5.7V29.5c0-5.9,4-9.7,10.1-9.7c3.4,0,7.1,0.8,9.5,1.9l-1.3,5
		c-2.3-1-5.3-1.8-7.6-1.8C139.3,24.8,137.4,26.7,137.4,29.6z"/>
	<path class="st0" d="M164.4,24.9v18.4h4.2v4.9h-14.1v-4.9h4.3V24.9h-4.3V20h14.1v4.9H164.4z"/>
	<path class="st0" d="M178.8,20v23.2h12.7v5.1h-18.3V20H178.8z"/>
	<polygon class="st1" points="34.4,3.6 61.1,19 61.1,49.6 34.5,65 7.8,49.7 7.9,19 	"/>
	<path class="st2" d="M47.1,31l7.7-4.4V46L47,50.4L47.1,31z M34.6,42l7.6-4.4v0l0-3.8l-7.6,4.4L34.6,42z M34.6,57.6l7.6-4.4l0-12.5
		l-7.6,4.4L34.6,57.6z M34.5,19.9l12.6,7.2l7.6-4.4L34.5,11L14.4,22.7L14.3,46l7.8,4.5V27.2l12.6,7.2l7.6-4.4l-12.6-7.2L34.5,19.9z"
		/>
</g>
<g class="st3">
	<path class="st4" d="M89.1,23.7c-2.6,0-4.4,1-4.4,2.8c0,6,15.8,2.7,15.8,13.3c0,5.5-4.8,8.7-11.3,8.7c-4.7,0-9.3-1.9-12.4-4.7
		l2.4-4.7c3,2.7,7,4.3,10.2,4.3s5-1.2,5-3.2c0-6.1-15.8-2.6-15.8-13.1c0-5.1,4.4-8.4,11-8.4c3.9,0,7.8,1.3,10.6,3.1l-2.3,4.9
		C94.8,24.7,91.4,23.7,89.1,23.7z"/>
	<path class="st4" d="M128.1,26.6c-2.4-1.3-5.7-2.4-9.3-2.5v24.2h-5.6V24.1c-2.9,0.3-5.7,1.2-8.1,2.5l-1.8-4.8c3.7-2,7.4-2.8,12-2.8
		c5.6,0,11,3.5,13.3,6.4L128.1,26.6z"/>
	<path class="st4" d="M137.5,29.6v3.7h11.3v4.9h-11.3v10h-5.7V29.5c0-5.9,4-9.7,10.1-9.7c3.4,0,7.1,0.8,9.5,1.9l-1.3,5
		c-2.3-1-5.3-1.8-7.6-1.8C139.5,24.8,137.5,26.7,137.5,29.6z"/>
	<path class="st4" d="M164.6,24.9v18.4h4.2v4.9h-14.1v-4.9h4.3V24.9h-4.3V20h14.1v4.9H164.6z"/>
	<path class="st4" d="M179,20v23.2h12.7v5.1h-18.3V20H179z"/>
	<g class="st5">
		<path class="st1" d="M34.7,66c-0.2,0-0.3,0-0.5-0.1L7.4,50.5c-0.3-0.2-0.5-0.5-0.5-0.9L7,19c0-0.4,0.2-0.7,0.5-0.9L34,2.7
			c0.2-0.1,0.3-0.1,0.5-0.1c0.2,0,0.3,0,0.5,0.1l26.7,15.4c0.3,0.2,0.5,0.5,0.5,0.9v30.6c0,0.4-0.2,0.7-0.5,0.9L35.2,65.9
			C35,66,34.9,66,34.7,66z"/>
		<path class="st2" d="M34.5,3.6L61.2,19v30.6L34.7,65L7.9,49.7L8,19L34.5,3.6 M34.5,1.6c-0.3,0-0.7,0.1-1,0.3L7,17.3
			c-0.6,0.4-1,1-1,1.7L5.9,49.7c0,0.7,0.4,1.4,1,1.7l26.8,15.4c0.3,0.2,0.7,0.3,1,0.3c0.3,0,0.7-0.1,1-0.3l26.5-15.4
			c0.6-0.4,1-1,1-1.7V19c0-0.7-0.4-1.4-1-1.7L35.5,1.9C35.2,1.7,34.9,1.6,34.5,1.6L34.5,1.6z"/>
	</g>
	<path class="st4" d="M47.2,31l7.7-4.4V46l-7.7,4.5L47.2,31z M34.8,42l7.6-4.4v0l0-3.8l-7.6,4.4L34.8,42z M34.8,57.6l7.6-4.4l0-12.5
		l-7.6,4.4L34.8,57.6z M34.7,19.9l12.6,7.2l7.6-4.4L34.6,11L14.5,22.7L14.5,46l7.8,4.5V27.2l12.6,7.2l7.6-4.4l-12.6-7.2L34.7,19.9z"
		/>
</g>
</svg>
